<svg width="325" height="71" viewBox="0 0 325 71" fill="none" xmlns="http://www.w3.org/2000/svg">
<g filter="url(#filter0_d_1_19)">
<path d="M64.1741 39.5122V36.1997H72.1634V26.8461H65.8304V23.533H82.394V26.8461H76.061V36.1997H84.0502V39.5122H64.1741Z" fill="white"/>
<path d="M88.533 37.0761C91.9754 35.6481 94.7034 33.9585 96.7171 32.0097C98.8613 29.9972 100.42 27.5617 101.394 24.7026H90.7737V21.2924H103.635L104.123 20.9999L106.363 22.9486C104.609 26.8462 103.309 29.4771 102.466 30.8408C105 32.9201 107.369 35.0958 109.579 37.3687L106.655 40.3892C104.641 37.7923 102.498 35.6481 100.225 33.9585C97.7555 36.8176 94.6378 39.0589 90.8714 40.6812L88.533 37.0761Z" fill="white"/>
<path d="M114.06 39.5122V36.1997H122.05V26.8461H115.716V23.533H132.28V26.8461H125.947V36.1997H133.937V39.5122H114.06Z" fill="white"/>
<path d="M138.711 36.5896L141.147 36.4919C143.225 32.0099 145.142 26.8791 146.895 21.0977L150.793 22.1689C149.103 26.8457 147.252 31.491 145.239 36.1022C148.291 35.9074 151.019 35.5833 153.423 35.1282C152.579 33.6995 151.701 32.3358 150.793 31.0358L153.716 28.9899C155.339 31.264 157.321 34.446 159.66 38.5377L156.444 40.5842L155.275 38.5377C150.922 39.1877 145.66 39.7406 139.491 40.194L138.711 36.5896Z" fill="white"/>
<path d="M175.151 29.6718H177.49V27.5282H175.93C175.67 28.5684 175.41 29.2821 175.151 29.6718ZM177.003 32.6923H173.008V29.6718H174.956L172.033 28.5029C172.487 27.7236 172.845 26.7489 173.105 25.5794L171.936 27.4311L171.547 27.0414V28.8925H169.792V29.6718H172.326V32.5946H169.792V36.0048C170.117 35.3566 170.377 34.3164 170.572 32.8865L173.397 33.667C173.202 35.0963 172.813 36.3307 172.228 37.3691L169.792 36.5899V38.0507L172.326 37.5633L172.715 39.1231C173.624 38.4743 174.501 37.5633 175.346 36.395C176.19 35.1612 176.742 33.9268 177.003 32.6923ZM166.48 25.969H170.28C169.89 25.6449 169.208 24.8978 168.234 23.7283C167.779 24.4439 167.194 25.1898 166.48 25.969ZM165.505 33.2768L166.187 37.4662L163.557 37.8565L162.679 33.8612L165.505 33.2768ZM166.772 19.8308L169.89 20.4159L169.695 20.8055C169.954 21.1951 170.538 21.813 171.448 22.6565C172.292 23.4364 172.974 24.0203 173.495 24.4105C173.69 23.8916 173.851 22.7876 173.982 21.098L176.905 21.4877C176.905 22.6565 176.807 23.6962 176.613 24.6053H177.49V19.9285H180.803V24.6053H184.603V27.5282H180.803V29.6718H185.187V32.6923H181.289C181.938 35.2255 183.4 37.4025 185.674 39.2202L183.92 42.6304C182.88 41.9148 181.874 40.9086 180.9 39.6098C180.055 38.4409 179.47 37.3691 179.146 36.395C178.756 37.5002 178.106 38.6691 177.197 39.9023C176.223 41.2661 175.28 42.2401 174.372 42.8252L172.52 40.8764C169.467 41.4609 166.48 41.9804 163.557 42.4356L162.777 39.0254L166.48 38.538V32.5946H162.972V29.6718H166.48V28.8925H164.823V27.8207C164.434 28.2759 164.141 28.5684 163.947 28.6977L162.485 25.7748C163.329 25.1898 164.173 24.3128 165.018 23.1439C165.861 21.9744 166.446 20.871 166.772 19.8308Z" fill="white"/>
<path d="M187.72 37.7584H197.172V24.9946H188.987V21.877H209.058V24.9946H200.971V37.7584H210.13V40.8767H187.72V37.7584Z" fill="white"/>
<path d="M221.238 34.5431H228.838V33.6667H221.238V34.5431ZM221.238 30.9381H228.838V29.964H221.238V30.9381ZM218.899 25.482H212.664V22.4614H220.751C221.204 22.0081 221.594 21.1311 221.92 19.8305L225.622 20.2207C225.233 21.5207 224.907 22.2666 224.648 22.4614H234.878V25.482H223.187C222.992 25.8716 222.633 26.3268 222.115 26.8457H232.247V40.0969C232.247 41.656 231.5 42.4353 230.007 42.4353H227.182L225.915 39.1228H227.961C228.545 39.1877 228.838 38.8958 228.838 38.2458V37.2711H221.238V42.533H217.73V32.2047C217.535 32.5943 217.048 33.0816 216.269 33.6667C215.553 34.2505 214.871 34.7057 214.222 35.0304L212.566 31.3283C213.799 30.8088 215.066 29.9318 216.366 28.6974C217.536 27.5934 218.379 26.5216 218.899 25.482Z" fill="white"/>
<path d="M254.56 31.8151C254.56 32.5306 254.755 33.2128 255.145 33.861L256.899 31.8151H254.56ZM250.566 28.7945H254.95V27.5279H250.566V28.7945ZM250.566 24.7999H254.95V23.5333H250.566V24.7999ZM260.601 39.4147L258.75 42.533C257.191 41.8169 255.827 40.8106 254.658 39.5125C252.968 37.6292 251.832 35.0645 251.247 31.8151H250.566V37.7585L252.612 37.1741L253.391 40.2923C251.182 41.1353 248.583 41.7532 245.596 42.1434L244.72 38.8309L247.253 38.4407V23.1436L245.207 28.3078C245.531 29.2181 245.855 30.1267 246.181 31.0358C246.83 33.0495 246.765 34.8357 245.986 36.3948C245.531 37.3051 244.817 37.9218 243.843 38.2459L242.868 38.5378L241.601 34.6408C242.64 34.511 243.193 34.0242 243.258 33.1794C243.387 31.6858 242.9 30.0951 241.797 28.4049L243.648 23.7281H241.504V42.6301H238.191V20.6104H244.817L244.914 20.3179L247.253 21.6822V20.6104H258.36V31.8151H257.873L260.017 33.2765L256.899 36.8821C257.094 37.2074 257.483 37.5971 258.068 38.0504C258.976 38.701 259.822 39.1562 260.601 39.4147Z" fill="white"/>
<path d="M269.37 27.1385H278.041C276.612 26.2949 275.182 25.0604 273.755 23.4357C273.494 23.826 272.844 24.4438 271.806 25.2874C270.831 26.0667 270.018 26.6845 269.37 27.1385ZM281.062 42.4355L280.088 40.9735C275.995 41.493 270.863 42.0119 264.693 42.5332L264.011 39.2201L266.349 39.123L269.467 34.7381H263.232V31.6199H283.985V34.7381H273.95L271.026 38.8305L277.554 38.0506L276.287 36.4921L279.308 34.9329C280.346 35.8433 281.971 37.7265 284.179 40.5844L281.062 42.4355ZM271.61 20.7077L272.488 19.6359L276.287 20.4152L275.898 20.9025C276.678 21.9422 277.847 22.949 279.406 23.9231C281.16 25.0283 283.074 25.9374 285.154 26.6511L283.4 30.159C282.037 29.7688 280.704 29.0551 279.406 28.0154V30.2561H267.811V28.2103C266.447 29.1206 265.049 29.7688 263.621 30.159L262.062 26.7488C264.141 26.0345 265.863 25.2231 267.226 24.3127C269.109 23.1432 270.571 21.9422 271.61 20.7077Z" fill="white"/>
<path d="M296.067 38.5378H301.523V29.964H297.626V26.7486H301.523V19.8305H304.933V26.7486H309.026V29.964H304.933V38.5378H310V41.656H296.067V38.5378ZM293.826 26.8458H287.395V23.8258H290.903V19.7334H294.216V23.8258H295.385L295.482 23.631L298.113 25.482C297.852 26.0665 297.495 26.8142 297.041 27.7233C296.521 28.6974 295.936 29.6078 295.287 30.4514C295.806 31.1014 296.944 31.9777 298.698 33.0817L297.041 36.4919C296.067 35.5834 295.19 34.7379 294.41 33.9587V42.4353H290.903V35.7126C290.318 36.3626 289.505 37.1097 288.467 37.9533L287.005 34.5431C288.239 33.6995 289.539 32.5306 290.903 31.0358C292.201 29.6078 293.175 28.2101 293.826 26.8458Z" fill="white"/>
<path d="M24.1764 19.6482C23.8633 19.5171 23.5495 19.3861 23.2363 19.2544C21.7937 22.2245 20.3511 25.1947 18.7246 28.5424H24.6334C24.4738 25.4448 24.3251 22.5462 24.1764 19.6482ZM44.7851 43.2902C48.3094 40.544 49.7562 37.2315 50.5021 33.1652C48.2894 33.2684 46.3412 33.3594 44.3075 33.4541C44.4665 36.7259 44.6121 39.7307 44.7851 43.2902ZM37.2486 44.1271C40.7504 41.3487 38.3883 38.2978 39.2259 35.6826C38.9819 35.665 38.7373 35.6481 38.4933 35.6305V38.5661H32.4231C31.8714 37.0725 31.384 35.7512 30.8961 34.43C30.6709 34.4955 30.4452 34.5611 30.22 34.6266C30.535 37.7935 29.2672 41.1442 31.8599 44.1878C30.1332 44.3353 28.6906 44.4591 27.0501 44.5993C31.4654 47.8517 40.2533 47.6654 42.772 44.3753C41.0824 44.2995 39.4419 44.226 37.2486 44.1271ZM31.4805 18.1462C31.0806 19.3933 30.3565 20.4512 30.6351 20.9859C31.8538 23.3237 33.3625 25.5097 35.0273 28.168C36.5087 25.2099 37.7341 22.7635 38.9024 20.4299C38.1486 19.5997 37.6024 18.9976 36.8007 18.114C38.9892 18.0011 40.7413 17.9113 42.8527 17.8026C38.9922 14.0368 30.6187 14.2486 25.9213 18.1462H31.4805ZM15.5305 35.9297H22.5008C21.8823 36.6725 21.3549 37.3055 20.5817 38.2335C21.7009 39.7756 22.8771 41.396 24.0538 43.0165C24.2177 42.9509 24.3822 42.886 24.546 42.8211V33.9433H15.3187C13.4118 24.1484 20.285 14.1072 29.9948 11.5752C40.3723 8.8684 52.616 16.0256 54.2753 26.5111C53.141 26.661 52.0073 26.8716 50.8651 26.9444C49.6761 27.0197 48.4793 26.9608 46.6683 26.9608C47.5847 25.9722 48.174 25.3355 49.0978 24.3384C47.7765 22.5031 46.3982 20.5895 45.02 18.6754C44.8209 18.7792 44.6212 18.8835 44.4222 18.9873V28.0557H54.4901C55.8842 35.4939 53.2866 41.3354 47.9179 46.0886C41.3992 51.8585 33.9597 52.5127 26.2533 49.0673C20.7165 46.5918 16.9245 42.3446 15.5305 35.9297Z" fill="white"/>
</g>
<defs>
<filter id="filter0_d_1_19" x="0" y="0" width="325" height="70.1689" filterUnits="userSpaceOnUse" color-interpolation-filters="sRGB">
<feFlood flood-opacity="0" result="BackgroundImageFix"/>
<feColorMatrix in="SourceAlpha" type="matrix" values="0 0 0 0 0 0 0 0 0 0 0 0 0 0 0 0 0 0 127 0" result="hardAlpha"/>
<feOffset dy="4"/>
<feGaussianBlur stdDeviation="7.5"/>
<feComposite in2="hardAlpha" operator="out"/>
<feColorMatrix type="matrix" values="0 0 0 0 0.0748535 0 0 0 0 0.0748535 0 0 0 0 0.0748535 0 0 0 0.5 0"/>
<feBlend mode="normal" in2="BackgroundImageFix" result="effect1_dropShadow_1_19"/>
<feBlend mode="normal" in="SourceGraphic" in2="effect1_dropShadow_1_19" result="shape"/>
</filter>
</defs>
</svg>
