<svg width="16" height="16" viewBox="0 0 16 16" fill="none" xmlns="http://www.w3.org/2000/svg">
<path fill-rule="evenodd" clip-rule="evenodd" d="M0 3.85981C0 1.7281 1.72811 0 3.85982 0H12.1401C14.2719 0 16 1.7281 16 3.85981V12.1401C16 14.2718 14.2719 15.9999 12.1401 15.9999H3.85982C1.72811 15.9999 0 14.2718 0 12.1401V3.85981ZM3.85982 1.50942C2.56173 1.50942 1.50942 2.56173 1.50942 3.85981V12.1401C1.50942 13.4382 2.56173 14.4905 3.85982 14.4905H12.1401C13.4382 14.4905 14.4906 13.4382 14.4906 12.1401V3.85981C14.4906 2.56173 13.4382 1.50942 12.1401 1.50942H3.85982ZM12.178 4.7168C11.5944 4.7168 11.1214 4.24375 11.1214 3.6602C11.1214 3.07666 11.5944 2.60361 12.178 2.60361C12.7615 2.60361 13.2346 3.07666 13.2346 3.6602C13.2346 4.24375 12.7615 4.7168 12.178 4.7168ZM7.99966 4.31748C5.96589 4.31748 4.31719 5.96618 4.31719 7.99995C4.31719 10.0337 5.96589 11.6824 7.99966 11.6824C10.0334 11.6824 11.6821 10.0337 11.6821 7.99995C11.6821 5.96618 10.0334 4.31748 7.99966 4.31748Z" fill="white"/>
</svg>
